# xmcd
#
# Track frame offsets: 
#        150
#        8197
#        20222
#        36400
#        46520
#        57185
#        69017
#        83117
#        97955
#        105385
#        118695
#        130417
#
# Disc length: 1871 seconds
#
# Revision: 0
# Processed by: cddbd v1.4PL0 Copyright (c) Steve Scherf et al.
# Submitted via: ExactAudioCopy v0.90b4
#
DISCID=91074d0c
DTITLE=Rex Allen - Rex Allen
DYEAR=1900
DGENRE=Country
TTITLE0=My Dear Old Arizona Home
TTITLE1=Tonight On The Range
TTITLE2=Sing Me A Song Of The Saddle
TTITLE3=Riding All Day
TTITLE4=Dreamy Montana Moon
TTITLE5=There's An Empty Cot In The Bunkhouse
TTITLE6=Bury Me Out On The Prairie
TTITLE7=Timber Wind
TTITLE8=Riding The Sunset Trail
TTITLE9=Old Buckaroo
TTITLE10=Out Where The West Wind Blows
TTITLE11=Texas Plains
EXTD=
EXTT0=
EXTT1=
EXTT2=
EXTT3=
EXTT4=
EXTT5=
EXTT6=
EXTT7=
EXTT8=
EXTT9=
EXTT10=
EXTT11=
PLAYORDER=
